<svg version="1.2" xmlns="http://www.w3.org/2000/svg" viewBox="0 0 1500 1482" width="1500" height="1482">
	<title>logo-no-background-svg</title>
	<style>
		.s0 { fill: #ea3c12;stroke: #000000;stroke-width: .4 } 
		.s1 { fill: #ffffff } 
	</style>
	<g id="Layer">
		<g id="Layer">
			<g id="tight-bounds">
				<g id="Layer">
					<g id="Layer">
						<g id="Layer">
							<g id="Layer">
								<g id="Layer">
									<g id="textblocktransform">
										<g id="textblock">
											<g id="Layer">
												<g id="Layer">
													<g id="Layer">
														<g id="Layer">
															<g id="text-0">
															</g>
														</g>
													</g>
												</g>
											</g>
										</g>
									</g>
								</g>
							</g>
							<g id="Layer">
								<g id="Layer">
									<g id="Layer">
										<g id="Layer">
										</g>
									</g>
									<g id="icon-0">
										<g id="Layer">
											<g id="Layer">
												<path id="Layer" class="s0" d="m750.4 1161.5c-232.4 0-420.2-187.8-420.2-420.1 0-232.4 187.8-420.2 420.2-420.2 232.3 0 420.1 187.8 420.1 420.2 0 232.3-187.8 420.1-420.1 420.1z"/>
											</g>
											<g id="Layer">
												<g id="Layer">
													<g id="Layer">
														<g id="cg-0">
															<g id="Layer">
																<g id="Layer">
																	<path id="Layer" class="s1" d="m517.7 699.4h72.7v-118h118v-72.7h-147.1c-24.1 0-43.6 20.1-43.6 45.3z"/>
																</g>
																<g id="Layer">
																	<path id="Layer" class="s1" d="m517.7 783.3v145.5c0 24.6 19.5 45.3 43.6 45.3h147.1v-72.7h-118v-118.1z"/>
																</g>
																<g id="Layer">
																	<path id="Layer" class="s1" d="m792.3 974.1h147.1c24.1 0 43.7-20.2 43.7-45.3v-145.5h-72.7v118.1h-118.1z"/>
																</g>
																<g id="Layer">
																	<path id="Layer" class="s1" d="m910.4 699.4h72.7v-145.4c0-24.6-19.6-45.3-43.7-45.3h-147.1v72.7h118.1z"/>
																</g>
															</g>
														</g>
													</g>
												</g>
											</g>
										</g>
									</g>
								</g>
							</g>
							<g id="Layer">
							</g>
						</g>
					</g>
				</g>
			</g>
		</g>
	</g>
</svg>